<svg width="27" height="21" viewBox="0 0 27 21" fill="none" xmlns="http://www.w3.org/2000/svg">
<g id="&#240;&#159;&#166;&#134; icon &#34;cart&#34;">
<path id="Vector" d="M1.43924 0.00709951C0.9916 0.081335 0.590751 0.336842 0.324869 0.717412C0.0589872 1.09798 -0.050147 1.57244 0.0214747 2.03641C0.0930963 2.50039 0.339607 2.91586 0.706777 3.19145C1.07395 3.46704 1.5317 3.58015 1.97934 3.50592H7.04277L7.34657 4.38062L8.73058 8.75414L10.1146 13.1277C10.2496 13.5825 10.8235 14.0024 11.2623 14.0024H23.077C23.5496 14.0024 24.0897 13.5825 24.2247 13.1277L26.9589 4.38062C27.094 3.92577 26.8914 3.50592 26.4188 3.50592H11.4311L10.1483 0.986768C10.0117 0.697624 9.80076 0.453166 9.5387 0.280314C9.27664 0.107461 8.97364 0.0129198 8.66307 0.00709951L1.91182 0.00709951C1.81076 -0.0023665 1.70908 -0.0023665 1.60802 0.00709951C1.54057 0.00289714 1.47293 0.00289714 1.40548 0.00709951L1.43924 0.00709951ZM12.1062 17.5012C11.161 17.5012 10.4184 18.2709 10.4184 19.2506C10.4184 20.2303 11.161 21 12.1062 21C13.0514 21 13.794 20.2303 13.794 19.2506C13.794 18.2709 13.0514 17.5012 12.1062 17.5012ZM22.2331 17.5012C21.2879 17.5012 20.5453 18.2709 20.5453 19.2506C20.5453 20.2303 21.2879 21 22.2331 21C23.1782 21 23.9209 20.2303 23.9209 19.2506C23.9209 18.2709 23.1782 17.5012 22.2331 17.5012Z" fill="black"/>
</g>
</svg>
